<svg width="1247" height="681" viewBox="0 0 1247 681" fill="none" xmlns="http://www.w3.org/2000/svg">
<g clip-path="url(#clip0_47_1482)">
<path d="M325.369 188.478L325.649 188.848L351.12 222.394L351.565 222.981L351.012 223.466L291.926 275.228L291.632 275.486L291.248 275.409C242.811 265.668 208.597 282.768 197.636 292.41L197.569 292.469L197.491 292.511L176.869 303.705L138.984 361.672L151.793 419.234C160.35 430.88 173.187 448.679 184.017 464.409C189.452 472.303 194.387 479.683 198.022 485.505C199.839 488.415 201.338 490.945 202.413 492.96C202.95 493.968 203.388 494.856 203.707 495.605C204.021 496.339 204.243 496.992 204.315 497.509C204.35 497.757 204.494 498.127 204.819 498.632C205.138 499.127 205.598 499.702 206.198 500.35C207.396 501.646 209.101 503.181 211.21 504.896C215.425 508.324 221.183 512.415 227.558 516.676C240.212 525.135 255.238 534.225 265.303 540.065L374.318 529.988L374.754 529.948L375.019 530.294L418.996 587.588L419.422 588.143L418.923 588.632C331.767 674.193 220.275 652.348 175.387 630.727C123.923 611.478 90.5308 574.855 69.704 536.927C48.8782 499.001 40.595 459.736 39.359 435.125C33.7399 319.312 112.237 246.352 152.223 224.328L152.351 224.258L164.982 222.491L207.157 210.214L207.177 210.208L207.197 210.203C216.42 208.048 230.509 204.78 242.801 201.979C255.065 199.185 265.61 196.84 267.692 196.548L325.369 188.478Z" fill="#8BD6FC" stroke="#035F8D" stroke-width="2"/>
<path d="M177.897 197.981C219.178 161.631 278.595 136.009 359.746 146.587L360.525 146.689L360.428 147.468L351.132 222.589L351.03 223.409L350.216 223.273C327.819 219.531 292.414 220.869 259.085 237.059C225.79 253.231 194.523 284.243 180.352 339.954C171.817 378.343 177.039 465.435 266.143 506.944L266.754 507.224C292.929 519.111 359.779 531.016 422.491 485.035L423.47 486.275L368.116 533.108C342.274 558.416 269.788 596.587 186.158 547.361L186.138 547.35L186.119 547.337C145.822 520.374 73.218 435.911 104.861 313.598L104.863 313.59C113.521 281.332 136.643 234.309 177.897 197.981Z" fill="#38A8DF" stroke="#035F8D" stroke-width="2"/>
<path d="M423.518 484.782L469.345 541.019L469.812 541.59L469.273 542.094L416.63 591.358L416.01 591.939L415.474 591.28L368.645 533.587L368.169 533.001L368.732 532.499L422.378 484.691L422.996 484.14L423.518 484.782Z" fill="#F0FAFF" stroke="#035F8D" stroke-width="2"/>
<path d="M446.192 315.215L404.677 370.16L459.678 411.601L501.192 356.656L446.192 315.215Z" fill="#F3F3F3" stroke="#5D5D5D" stroke-width="2"/>
<path d="M639.369 288.187L597.854 343.132L652.855 384.573L694.369 329.628L639.369 288.187Z" fill="#F3F3F3" stroke="#5D5D5D" stroke-width="2"/>
<path d="M596.604 342.385L596.867 342.585L649.916 383.047L651.423 384.195L459.946 410.986L461.084 409.467L501.149 355.977L501.346 355.713L596.604 342.385Z" fill="#CBC7C7" stroke="#5D5D5D" stroke-width="2"/>
<path d="M596.824 343.95L597.021 343.687L636.929 290.219L638.062 288.7L446.585 315.491L448.097 316.64L501.304 357.08L501.566 357.279L596.824 343.95Z" fill="#A4A1A1" stroke="#5D5D5D" stroke-width="2"/>
<path d="M942.074 97.0848L843.375 182.721L842.99 183.055L842.521 182.843L766.877 148.126L765.748 147.609L766.695 146.806L870.702 58.6415L871.109 58.2948L871.584 58.5455L941.924 95.79L942.943 96.3296L942.074 97.0848Z" fill="#FFFBFA" stroke="#CA2804" stroke-width="2"/>
<path d="M1054.51 461.658L1154.31 384.623L1154.71 384.318L1155.15 384.541L1230.47 422.312L1231.6 422.883L1230.59 423.649L1132.99 497.159L1132.62 497.439L1132.19 497.251L1054.68 463.006L1053.47 462.469L1054.51 461.658Z" fill="#FFFBFA" stroke="#CA2804" stroke-width="2"/>
<path d="M969.269 320.52L968.734 320.983L968.219 320.502L909.564 266.196L908.913 265.597L909.583 265.02L1016.76 172.076L1017.39 171.53L1017.9 172.186L1067.07 235.14L1067.53 235.732L1066.96 236.225L969.269 320.52Z" fill="#FED7CD" stroke="#CA2804" stroke-width="2"/>
<path d="M1082.48 318.25L984.796 402.545L984.254 403.009L983.739 402.528L925.084 348.222L924.413 347.6L925.124 347.027L1031.67 261.354L1032.25 260.883L1032.76 261.443L1082.56 317.124L1083.09 317.724L1082.48 318.25Z" fill="#FFA892" stroke="#CA2804" stroke-width="2"/>
<path d="M892.894 543.094L891.577 542.48L816.358 507.514L815.968 507.334L765.713 148.151L767.028 148.757L842.19 183.331L842.583 183.513L892.894 543.094Z" fill="#FED7CD" stroke="#CA2804" stroke-width="2"/>
<path d="M1230.26 421.658L1154.61 383.561L1154.24 383.373L1154.18 382.963L1104.92 25.1373L1104.71 23.6926L1106.04 24.3145L1180.47 59.3895L1180.86 59.5725L1231.61 422.337L1230.26 421.658Z" fill="#FFA892" stroke="#CA2804" stroke-width="2"/>
<path d="M994.674 465.202L994.306 465.483L894.74 542.062L893.665 542.89L893.477 541.546L842.98 183.494L842.92 183.066L843.248 182.785L942.056 97.9316L943.155 96.9876L994.674 465.202Z" fill="#FFA892" stroke="#CA2804" stroke-width="2"/>
<path d="M1004.31 111.41L1004.63 111.128L1102.83 24.7646L1103.93 23.7959L1104.13 25.2475L1154.63 383.299L1154.69 383.755L1154.32 384.037L1054.37 460.672L1053.29 461.496L1004.31 111.41Z" fill="#FED7CD" stroke="#CA2804" stroke-width="2"/>
<path d="M1011.65 177.755L1014.99 174.253L1027 264L1023.5 266.5L1011.65 177.755Z" fill="#FED7CD"/>
<path d="M971.043 311L975.033 308.234L987.5 399L983.5 402.5L971.043 311Z" fill="#FFA892"/>
</g>
<defs>
<clipPath id="clip0_47_1482">
<rect width="1185.56" height="521.645" fill="white" transform="translate(0 164.278) rotate(-7.96486)"/>
</clipPath>
</defs>
</svg>
