<svg width="1301" height="735" viewBox="0 0 1301 735" fill="none" xmlns="http://www.w3.org/2000/svg">
<g clip-path="url(#clip0_47_1482)" filter="url(#filter0_g_47_1482)">
<path d="M339.796 219.158L340.077 219.527L365.548 253.073L365.993 253.66L365.439 254.145L306.353 305.907L306.059 306.165L305.675 306.088C257.238 296.347 223.025 313.447 212.063 323.089L211.996 323.148L211.918 323.191L191.296 334.385L153.411 392.352L166.22 449.914C174.778 461.56 187.614 479.359 198.444 495.088C203.879 502.982 208.814 510.362 212.45 516.184C214.266 519.094 215.765 521.624 216.84 523.64C217.378 524.647 217.815 525.535 218.134 526.284C218.448 527.018 218.67 527.671 218.743 528.188C218.777 528.436 218.921 528.807 219.247 529.312C219.565 529.807 220.025 530.381 220.625 531.029C221.824 532.325 223.528 533.86 225.637 535.575C229.852 539.003 235.61 543.095 241.985 547.356C254.639 555.814 269.665 564.905 279.73 570.744L388.746 560.667L389.181 560.628L389.446 560.974L433.423 618.267L433.85 618.822L433.351 619.311C346.194 704.872 234.702 683.027 189.814 661.406C138.35 642.158 104.958 605.534 84.1313 567.606C63.3055 529.68 55.0222 490.415 53.7863 465.804C48.1672 349.991 126.664 277.031 166.651 255.008L166.778 254.937L179.409 253.17L221.585 240.893L221.605 240.887L221.625 240.882C230.847 238.727 244.936 235.459 257.229 232.659C269.492 229.864 280.038 227.519 282.119 227.228L339.796 219.158Z" fill="#8BD6FC" stroke="#035F8D" stroke-width="2"/>
<path d="M192.324 228.66C233.605 192.31 293.022 166.688 374.173 177.266L374.952 177.368L374.856 178.147L365.56 253.268L365.458 254.088L364.643 253.952C342.246 250.21 306.841 251.548 273.512 267.738C240.217 283.91 208.95 314.922 194.779 370.633C186.244 409.022 191.467 496.115 280.571 537.623L281.181 537.903C307.356 549.79 374.207 561.695 436.918 515.714L437.897 516.954L382.543 563.788C356.701 589.095 284.215 627.267 200.585 578.041L200.565 578.029L200.546 578.017C160.249 551.053 87.6453 466.59 119.288 344.277L119.291 344.269C127.948 312.011 151.07 264.988 192.324 228.66Z" fill="#38A8DF" stroke="#035F8D" stroke-width="2"/>
<path d="M437.945 515.461L483.773 571.698L484.239 572.269L483.7 572.773L431.057 622.038L430.437 622.618L429.901 621.959L383.072 564.267L382.596 563.68L383.159 563.179L436.806 515.37L437.423 514.819L437.945 515.461Z" fill="#F0FAFF" stroke="#035F8D" stroke-width="2"/>
<path d="M460.619 345.894L419.104 400.839L474.105 442.281L515.619 387.335L460.619 345.894Z" fill="#F3F3F3" stroke="#5D5D5D" stroke-width="2"/>
<path d="M653.796 318.866L612.282 373.811L667.282 415.252L708.797 360.307L653.796 318.866Z" fill="#F3F3F3" stroke="#5D5D5D" stroke-width="2"/>
<path d="M611.032 373.064L611.294 373.264L664.344 413.726L665.85 414.875L474.374 441.665L475.512 440.146L515.576 386.656L515.773 386.392L611.032 373.064Z" fill="#CBC7C7" stroke="#5D5D5D" stroke-width="2"/>
<path d="M611.251 374.63L611.448 374.366L651.356 320.898L652.489 319.379L461.013 346.17L462.524 347.319L515.731 387.759L515.993 387.958L611.251 374.63Z" fill="#A4A1A1" stroke="#5D5D5D" stroke-width="2"/>
<path d="M956.501 127.764L857.802 213.4L857.418 213.734L856.948 213.522L781.304 178.805L780.175 178.288L781.122 177.485L885.129 89.3207L885.536 88.974L886.011 89.2247L956.352 126.469L957.37 127.009L956.501 127.764Z" fill="#FFFBFA" stroke="#CA2804" stroke-width="2"/>
<path d="M1068.94 492.337L1168.74 415.302L1169.14 414.997L1169.58 415.22L1244.89 452.991L1246.03 453.562L1245.02 454.328L1147.42 527.838L1147.04 528.118L1146.62 527.931L1069.1 493.685L1067.89 493.148L1068.94 492.337Z" fill="#FFFBFA" stroke="#CA2804" stroke-width="2"/>
<path d="M983.696 351.2L983.161 351.662L982.646 351.181L923.991 296.875L923.34 296.277L924.011 295.699L1031.19 202.755L1031.82 202.209L1032.33 202.865L1081.5 265.819L1081.95 266.412L1081.38 266.904L983.696 351.2Z" fill="#FED7CD" stroke="#CA2804" stroke-width="2"/>
<path d="M1096.91 348.929L999.223 433.224L998.681 433.688L998.166 433.207L939.511 378.901L938.841 378.279L939.552 377.706L1046.1 292.033L1046.68 291.562L1047.18 292.122L1096.99 347.804L1097.52 348.404L1096.91 348.929Z" fill="#FFA892" stroke="#CA2804" stroke-width="2"/>
<path d="M907.321 573.773L906.004 573.159L830.785 538.194L830.395 538.013L780.14 178.831L781.455 179.436L856.617 214.011L857.01 214.192L907.321 573.773Z" fill="#FED7CD" stroke="#CA2804" stroke-width="2"/>
<path d="M1244.69 452.337L1169.04 414.24L1168.67 414.052L1168.61 413.642L1119.34 55.8165L1119.14 54.3718L1120.47 54.9937L1194.9 90.0687L1195.28 90.2517L1246.04 453.016L1244.69 452.337Z" fill="#FFA892" stroke="#CA2804" stroke-width="2"/>
<path d="M1009.1 495.881L1008.73 496.162L909.167 572.742L908.092 573.569L907.904 572.225L857.407 214.173L857.347 213.745L857.676 213.464L956.484 128.611L957.582 127.667L1009.1 495.881Z" fill="#FFA892" stroke="#CA2804" stroke-width="2"/>
<path d="M1018.74 142.089L1019.06 141.807L1117.25 55.4438L1118.36 54.4751L1118.56 55.9267L1169.06 413.978L1169.12 414.435L1168.75 414.717L1068.79 491.351L1067.72 492.176L1018.74 142.089Z" fill="#FED7CD" stroke="#CA2804" stroke-width="2"/>
<path d="M1027.08 207.435L1030.42 203.932L1042.11 294.872L1039.58 296.759L1027.08 207.435Z" fill="#FED7CD"/>
<path d="M984.437 342.446L988.053 339.733L1000.8 430.804L997.25 434.028L984.437 342.446Z" fill="#FFA892"/>
</g>
<defs>
<filter id="filter0_g_47_1482" x="-38.0728" y="-21.8208" width="1351.4" height="785.891" filterUnits="userSpaceOnUse" color-interpolation-filters="sRGB">
<feFlood flood-opacity="0" result="BackgroundImageFix"/>
<feBlend mode="normal" in="SourceGraphic" in2="BackgroundImageFix" result="shape"/>
<feTurbulence type="fractalNoise" baseFrequency="10 10" numOctaves="3" seed="1461" />
<feDisplacementMap in="shape" scale="105" xChannelSelector="R" yChannelSelector="G" result="displacedImage" width="100%" height="100%" />
<feMerge result="effect1_texture_47_1482">
<feMergeNode in="displacedImage"/>
</feMerge>
</filter>
<clipPath id="clip0_47_1482">
<rect width="1185.56" height="521.645" fill="white" transform="translate(14.4272 194.957) rotate(-7.96486)"/>
</clipPath>
</defs>
</svg>
